<svg xmlns="http://www.w3.org/2000/svg" viewBox="0 0 1024 1024" width="150px"><title>polyestr-tsx-lit-transform</title><rect width="512" height="1024" fill="#007acc"/><rect x="512" width="512" height="1024" fill="#f7df1e"/><path d="M283,398l17,27L164,508l136,84-19,26L133,526V491Z" fill="#fff"/><path d="M335,500c27,0,39-14,39-40V387c0-49,34-62,81-62v28c-28,0-47,7-47,30v77c0,34-16,49-41,53v2c25,4,41,18,41,53v77c0,24,19,30,47,30v28c-47,0-81-13-81-62V570c0-27-12-41-39-41Z" fill="#fff"/><path d="M891,491v35L743,618l-19-26,136-84L724,425l17-27Z" fill="#231f20"/><path d="M689,529c-27,0-39,14-39,41v72c0,49-34,62-81,62V676c28,0,47-7,47-30V568c0-35,16-49,41-53v-2c-25-4-41-19-41-53V383c0-23-19-30-47-30V325c47,0,81,13,81,62v72c0,27,12,40,39,40Z" fill="#231f20"/></svg>
